<?xml version="1.0" encoding="utf-8"?>
<!-- Generator: Adobe Illustrator 24.1.1, SVG Export Plug-In . SVG Version: 6.00 Build 0)  -->
<svg version="1.1" id="Layer_1" xmlns="http://www.w3.org/2000/svg" xmlns:xlink="http://www.w3.org/1999/xlink" x="0px" y="0px"
	 viewBox="0 0 20 20" style="enable-background:new 0 0 20 20;" xml:space="preserve">
<style type="text/css">
	.st0{fill-rule:evenodd;clip-rule:evenodd;}
</style>
<path class="st0" d="M6.7,10c0,1.8,1.5,3.2,3.3,3.2c1.8,0,3.2-1.4,3.2-3.2c0-1.8-1.5-3.2-3.2-3.2C8.2,6.8,6.7,8.2,6.7,10z M14.8,5
	c1.4,1.1,2.6,2.7,3.5,4.7c0.1,0.2,0.1,0.3,0,0.5c-1.7,4-4.8,6.4-8.3,6.4h0c-3.4,0-6.5-2.4-8.3-6.4c-0.1-0.1-0.1-0.3,0-0.5
	c1.7-4,4.8-6.4,8.3-6.4h0C11.7,3.3,13.4,3.9,14.8,5z M10,12c1.1,0,2-0.9,2-2c0-1.1-0.9-2-2-2C9.9,8,9.8,8,9.7,8C9.7,8.9,9,9.6,8,9.6
	h0C8,9.7,8,9.9,8,10C8,11.1,8.9,12,10,12z"/>
</svg>
