<svg width="20" height="20" viewBox="0 0 20 20" fill="none" xmlns="http://www.w3.org/2000/svg">
<path fill-rule="evenodd" clip-rule="evenodd" d="M6.74779 10.0002C6.74779 11.778 8.20307 13.2244 9.99982 13.2244C11.7884 13.2244 13.2437 11.778 13.2437 10.0002C13.2437 8.21432 11.7884 6.76786 9.99982 6.76786C8.20307 6.76786 6.74779 8.21432 6.74779 10.0002ZM14.7803 5.03855C16.2031 6.13754 17.4145 7.74562 18.2844 9.75774C18.3494 9.91127 18.3494 10.0891 18.2844 10.2345C16.5446 14.2587 13.447 16.6668 9.99984 16.6668H9.99171C6.55268 16.6668 3.45512 14.2587 1.71528 10.2345C1.65024 10.0891 1.65024 9.91127 1.71528 9.75774C3.45512 5.7335 6.55268 3.3335 9.99171 3.3335H9.99984C11.7234 3.3335 13.3576 3.93148 14.7803 5.03855ZM10.0008 12.0105C11.1147 12.0105 12.0252 11.1054 12.0252 9.99837C12.0252 8.88321 11.1147 7.97816 10.0008 7.97816C9.90327 7.97816 9.80571 7.98625 9.71628 8.00241C9.68376 8.8913 8.95205 9.60241 8.04962 9.60241H8.00897C7.98457 9.7317 7.96831 9.86099 7.96831 9.99837C7.96831 11.1054 8.87888 12.0105 10.0008 12.0105Z" fill="#D4D4D4"/>
</svg>
